<?xml version="1.0" standalone="no"?>
<!DOCTYPE svg PUBLIC "-//W3C//DTD SVG 20010904//EN"
 "http://www.w3.org/TR/2001/REC-SVG-20010904/DTD/svg10.dtd">
<svg version="1.0" xmlns="http://www.w3.org/2000/svg"
 width="2000.000000pt" height="1000.000000pt" viewBox="0 0 2000.000000 1000.000000"
 preserveAspectRatio="xMidYMid meet">

<g transform="translate(0.000000,1000.000000) scale(0.100000,-0.100000)"
fill="#000000" stroke="none">
<path d="M9046 8961 c-3 -5 -17 -55 -32 -112 -21 -84 -27 -136 -31 -273 -6
-186 -12 -192 -49 -51 -14 53 -18 107 -19 226 l0 157 -37 -30 c-176 -139 -263
-379 -203 -557 17 -53 17 -55 -1 -68 -33 -25 -514 -259 -643 -313 -537 -225
-1047 -357 -1458 -377 l-133 -6 0 -70 0 -69 128 7 c467 25 998 166 1587 420
107 46 464 222 574 283 l54 30 44 -28 c130 -83 337 -79 513 10 74 37 150 99
181 148 35 55 38 107 9 170 l-19 43 -73 -62 c-142 -119 -274 -179 -393 -178
-70 0 -74 -5 73 89 58 38 133 100 198 165 l106 104 -21 28 c-11 15 -57 80
-103 142 -97 134 -151 181 -208 181 -21 0 -41 -4 -44 -9z"/>
<path d="M11766 8961 c-3 -5 -17 -55 -32 -112 -21 -84 -27 -136 -31 -273 -6
-186 -12 -192 -49 -51 -14 53 -18 107 -19 226 l0 157 -37 -30 c-176 -139 -263
-379 -203 -557 17 -53 17 -55 -1 -68 -34 -26 -496 -250 -634 -309 -378 -160
-757 -278 -1070 -333 -158 -28 -359 -51 -452 -51 l-78 0 0 -71 0 -71 128 7
c467 25 998 166 1587 420 107 46 464 222 574 283 l54 30 44 -28 c130 -83 337
-79 513 10 74 37 150 99 181 148 35 55 38 107 9 170 l-19 43 -73 -62 c-142
-119 -274 -179 -393 -178 -70 0 -74 -5 73 89 58 38 133 100 198 165 l106 104
-21 28 c-11 15 -57 80 -103 142 -97 134 -151 181 -208 181 -21 0 -41 -4 -44
-9z"/>
<path d="M7482 8445 c-136 -72 -230 -167 -302 -306 -68 -130 -87 -265 -51
-346 32 -69 72 -79 158 -39 67 32 189 152 237 235 66 113 105 264 106 402 0
31 -3 59 -6 62 -4 4 -28 -42 -53 -101 -60 -139 -110 -227 -172 -304 -116 -145
-106 -92 38 191 64 127 114 233 112 235 -2 3 -32 -10 -67 -29z"/>
<path d="M10212 8452 c-141 -75 -239 -173 -312 -313 -63 -121 -84 -244 -58
-331 35 -117 151 -98 296 50 88 89 148 192 181 310 23 83 37 226 27 268 -6 24
-12 15 -54 -82 -61 -141 -111 -228 -173 -306 -116 -145 -106 -92 38 191 64
127 114 233 112 236 -3 2 -29 -8 -57 -23z"/>
<path d="M8023 7710 c-122 -25 -156 -94 -93 -193 74 -118 284 -207 483 -207
81 0 183 17 242 40 38 15 40 14 -165 85 -229 79 -320 115 -320 126 0 16 111
10 197 -11 87 -21 230 -73 302 -110 24 -12 46 -19 49 -15 9 8 -94 111 -162
161 -143 105 -364 157 -533 124z"/>
<path d="M10743 7710 c-122 -25 -156 -94 -93 -193 74 -118 284 -207 483 -207
81 0 183 17 242 40 38 15 40 14 -165 85 -229 79 -320 115 -320 126 0 16 111
10 197 -11 87 -21 230 -73 302 -110 24 -12 45 -19 48 -16 9 8 -98 116 -161
162 -144 106 -365 157 -533 124z"/>
<path d="M3410 6685 l0 -315 6590 0 6590 0 0 315 0 315 -6590 0 -6590 0 0
-315z"/>
<path d="M2560 5805 l0 -315 393 -2 392 -3 0 -1344 0 -1344 -385 -262 -385
-263 -3 -241 -2 -241 7430 0 7430 0 0 239 0 240 -387 264 -388 264 0 1344 0
1344 393 3 392 2 0 315 0 315 -7440 0 -7440 0 0 -315z m6714 -764 c67 -172
110 -270 124 -282 12 -9 22 -20 22 -23 0 -3 -43 -6 -95 -6 -57 0 -95 4 -95 10
0 6 8 10 19 10 32 0 41 21 25 65 -7 22 -21 61 -30 88 l-16 47 -98 0 -98 0 -20
-57 c-33 -90 -35 -108 -17 -127 9 -9 25 -16 36 -16 10 0 19 -4 19 -10 0 -6
-34 -10 -82 -10 l-83 1 26 22 c15 12 31 32 37 43 9 17 98 244 193 492 5 13 14
22 20 20 6 -2 57 -122 113 -267z m446 259 c0 -5 -9 -10 -19 -10 -48 0 -51 -15
-51 -270 0 -279 -3 -270 94 -270 109 0 141 22 155 106 3 21 12 39 19 42 9 3
12 -18 12 -82 l0 -86 -216 0 c-141 0 -213 3 -209 10 3 6 14 10 24 10 39 0 41
16 41 273 l0 248 -35 15 c-19 8 -35 16 -35 19 0 3 50 5 110 5 67 0 110 -4 110
-10z m730 -65 c0 -60 -3 -75 -15 -75 -9 0 -15 9 -15 24 0 77 -38 106 -137 106
-92 0 -93 -2 -93 -140 l0 -120 33 0 c47 0 76 24 83 71 11 67 24 43 24 -43 0
-46 3 -100 7 -122 8 -53 -18 -45 -29 10 -10 48 -30 64 -80 64 l-38 0 0 -119
c0 -92 3 -121 15 -131 10 -8 41 -11 96 -8 73 3 83 6 104 30 13 15 26 45 30 67
10 61 25 60 25 -2 0 -30 3 -69 6 -86 l7 -31 -217 0 c-197 0 -263 8 -187 23 38
8 41 26 41 267 0 241 -3 259 -41 267 -75 15 -11 23 176 23 l205 0 0 -75z m310
65 c0 -5 -9 -10 -19 -10 -11 0 -23 -5 -26 -11 -6 -9 107 -193 126 -204 12 -8
109 152 109 180 0 20 -6 27 -30 32 -57 11 -29 23 55 23 47 0 85 -3 85 -7 -1
-5 -15 -17 -33 -28 -37 -24 -170 -213 -164 -235 9 -34 181 -283 198 -287 46
-13 11 -23 -76 -23 -57 0 -95 4 -95 10 0 6 11 10 25 10 14 0 25 5 25 12 0 13
-131 218 -140 218 -3 0 -29 -37 -57 -82 -69 -106 -70 -148 -2 -148 10 0 19 -4
19 -10 0 -6 -38 -10 -95 -10 -52 0 -95 3 -95 8 0 4 14 13 31 21 21 9 54 49
109 130 l78 117 -89 137 c-50 76 -98 138 -109 142 -46 14 -14 25 75 25 57 0
95 -4 95 -10z m5143 -946 c22 -8 54 -23 72 -34 47 -29 72 -26 80 10 5 22 12
30 27 30 20 0 21 -4 15 -82 -4 -46 -7 -122 -7 -170 0 -80 -2 -88 -19 -88 -15
0 -20 10 -26 47 -15 103 -71 198 -139 238 -34 20 -56 25 -107 25 -105 0 -159
-49 -159 -144 0 -96 27 -127 237 -272 228 -158 268 -210 268 -355 0 -78 -3
-90 -30 -134 -41 -66 -102 -110 -186 -136 -59 -18 -89 -21 -183 -17 -100 4
-119 8 -180 36 -38 18 -75 32 -83 32 -8 0 -19 -13 -24 -30 -7 -20 -18 -30 -31
-30 -18 0 -20 4 -14 38 3 20 6 112 6 205 0 154 1 167 18 167 15 0 20 -14 30
-81 19 -131 74 -234 144 -270 90 -46 202 -33 263 31 30 32 43 99 31 164 -10
53 -89 132 -227 227 -143 98 -197 148 -227 211 -88 181 15 360 230 397 64 11
166 4 221 -15z m-11473 -15 c0 -12 -12 -18 -41 -22 -78 -10 -74 16 -77 -489
-2 -394 -1 -454 13 -474 14 -22 22 -24 108 -24 67 0 103 5 132 19 74 33 143
135 169 249 9 43 17 58 32 60 18 3 19 -6 20 -183 l1 -185 -418 0 c-364 0 -419
2 -419 15 0 10 14 17 41 21 22 4 46 13 54 20 23 23 26 104 23 519 -2 302 -6
405 -16 422 -8 15 -26 25 -53 29 -39 7 -54 17 -46 32 3 4 111 7 241 7 211 0
236 -2 236 -16z m4755 -133 c19 -8 59 -31 89 -51 29 -19 60 -35 69 -35 15 0
19 7 31 63 5 20 12 27 24 25 9 -2 17 -9 16 -16 -1 -6 -2 -75 -2 -152 -2 -128
-4 -140 -20 -140 -14 0 -24 17 -40 69 -27 83 -89 158 -158 191 -38 19 -58 22
-123 18 -121 -7 -195 -59 -248 -175 -84 -183 -64 -496 40 -619 52 -62 172 -97
255 -75 23 7 46 20 52 31 15 27 13 249 -3 280 -11 23 -27 30 -99 45 -16 3 -28
12 -28 20 0 13 32 15 220 15 185 0 220 -2 220 -14 0 -8 -12 -21 -27 -28 l-28
-13 -3 -178 c-2 -165 -4 -177 -21 -177 -12 0 -21 9 -25 25 -8 33 -24 32 -121
-7 -67 -26 -98 -32 -188 -36 -179 -8 -308 32 -407 124 -94 88 -132 184 -131
337 0 244 146 431 371 476 30 6 64 13 75 15 37 9 174 -3 210 -18z m5734 -11
c30 -14 70 -37 88 -51 44 -34 65 -28 79 21 6 24 18 41 28 43 15 3 16 -10 14
-150 -3 -142 -4 -153 -22 -153 -14 0 -23 15 -36 58 -43 139 -141 217 -272 217
-143 -1 -249 -98 -293 -267 -18 -68 -20 -262 -4 -349 24 -130 92 -219 190
-248 66 -20 110 -20 154 -1 50 20 58 49 52 184 -4 109 -6 116 -31 138 -15 13
-40 23 -56 23 -38 0 -60 9 -60 26 0 12 39 14 226 14 209 0 225 -1 222 -17 -2
-10 -14 -19 -26 -21 -35 -5 -42 -39 -42 -213 0 -136 -2 -159 -15 -159 -9 0
-20 11 -25 25 -12 31 -33 32 -96 3 -81 -35 -144 -48 -245 -48 -264 0 -446 121
-493 330 -82 358 165 646 533 624 51 -3 92 -12 130 -29z m-9489 -6 c0 -10 -15
-18 -42 -25 -30 -6 -46 -16 -55 -34 -10 -19 -12 -115 -12 -380 1 -195 4 -366
8 -380 5 -19 18 -28 54 -39 26 -8 47 -20 47 -28 0 -10 -46 -13 -230 -13 -197
0 -230 2 -230 15 0 10 14 17 41 21 53 9 66 24 74 86 12 98 1 701 -13 725 -8
15 -26 25 -53 29 -39 7 -54 17 -46 32 3 4 107 7 231 7 198 0 226 -2 226 -16z
m825 -5 c118 -29 175 -89 175 -182 0 -62 -16 -98 -64 -139 -30 -27 -129 -73
-156 -73 -6 0 -10 -4 -10 -9 0 -5 23 -11 51 -15 160 -21 259 -110 259 -232 -1
-100 -56 -167 -179 -216 -53 -21 -72 -23 -378 -26 -288 -3 -323 -2 -323 12 0
11 13 18 41 22 53 9 66 24 74 86 12 98 1 701 -13 725 -8 15 -26 25 -53 29 -39
7 -54 17 -46 32 3 4 130 6 284 4 207 -2 293 -6 338 -18z m915 5 c0 -11 -12
-18 -39 -23 -72 -11 -71 -4 -71 -421 0 -416 -1 -407 70 -419 26 -4 40 -11 40
-21 0 -13 -33 -15 -230 -15 -197 0 -230 2 -230 15 0 10 14 17 40 21 71 12 70
3 70 424 0 206 -4 380 -8 386 -11 18 -48 34 -76 34 -23 0 -35 18 -22 31 2 2
106 4 230 4 202 0 226 -2 226 -16z m759 -280 l236 -293 3 180 c4 242 -2 300
-37 335 -19 18 -43 30 -75 34 -34 5 -46 12 -44 22 4 21 301 21 306 0 2 -8 -12
-18 -36 -25 -22 -7 -46 -20 -53 -29 -11 -13 -15 -100 -19 -431 l-5 -416 -43 1
c-24 0 -44 2 -46 4 -144 183 -579 720 -587 725 -8 5 -10 -78 -7 -297 3 -243 6
-310 18 -334 14 -28 47 -45 113 -59 15 -4 27 -13 27 -21 0 -13 -25 -15 -155
-15 -129 0 -155 2 -155 15 0 8 16 19 40 25 73 20 75 25 79 358 3 308 -3 429
-23 457 -6 9 -31 19 -54 22 -36 5 -52 19 -38 34 2 2 75 3 162 2 l157 -1 236
-293z m3027 237 c-3 -32 -6 -110 -6 -173 0 -100 -2 -114 -16 -111 -11 2 -22
27 -35 78 -21 81 -49 142 -82 178 -23 25 -103 52 -154 52 l-33 0 0 -380 c0
-455 -2 -443 89 -461 39 -7 61 -17 61 -25 0 -12 -48 -14 -270 -14 -231 0 -270
2 -270 15 0 10 16 16 52 21 76 10 94 33 103 125 3 41 5 218 3 394 l-3 320 -45
-1 c-63 -1 -94 -10 -130 -40 -38 -33 -72 -99 -93 -183 -9 -36 -21 -69 -26 -74
-23 -23 -29 11 -30 171 l-1 167 446 0 446 0 -6 -59z m654 43 c0 -11 -12 -18
-39 -23 -66 -10 -71 -25 -71 -223 l0 -173 190 0 190 0 0 168 c0 196 -5 213
-68 226 -27 7 -42 15 -42 25 0 14 27 16 227 14 188 -1 229 -4 231 -16 2 -10
-10 -16 -40 -20 -23 -3 -48 -13 -54 -22 -20 -27 -26 -166 -23 -478 4 -332 4
-329 79 -341 26 -4 40 -12 40 -21 0 -13 -33 -15 -230 -15 -189 0 -230 2 -230
14 0 8 19 18 45 25 34 9 48 18 55 37 6 14 10 104 10 200 l0 174 -190 0 -190 0
0 -181 c0 -105 4 -188 10 -200 6 -11 30 -24 55 -30 26 -7 45 -17 45 -25 0 -12
-41 -14 -230 -14 -197 0 -230 2 -230 15 0 10 14 17 40 21 71 12 70 3 70 424 0
206 -4 380 -8 386 -11 18 -48 34 -76 34 -23 0 -35 18 -22 31 2 2 106 4 230 4
202 0 226 -2 226 -16z m1278 -2 c2 -10 -10 -16 -39 -20 -50 -7 -58 -14 -70
-63 -11 -51 -11 -667 1 -718 10 -45 18 -52 71 -60 25 -4 39 -12 39 -21 0 -13
-33 -15 -230 -15 -184 0 -230 3 -230 13 0 8 21 20 47 28 36 11 49 20 54 39 4
14 7 185 8 380 0 265 -2 361 -12 380 -9 18 -25 28 -55 34 -27 7 -42 15 -42 25
0 14 27 16 227 14 188 -1 229 -4 231 -16z m735 -253 c120 -148 227 -280 237
-294 19 -25 19 -23 20 201 0 140 -4 238 -11 258 -12 35 -44 55 -102 66 -25 5
-37 13 -37 24 0 14 18 16 150 16 128 0 150 -2 150 -15 0 -9 -17 -22 -42 -30
-66 -23 -67 -28 -67 -476 l-1 -392 -41 -4 -41 -4 -285 356 c-157 195 -292 362
-300 370 -12 13 -14 -29 -11 -302 l3 -316 24 -26 c13 -14 38 -28 55 -31 56
-11 66 -16 66 -31 0 -11 -27 -14 -151 -14 -136 0 -150 2 -147 17 2 9 17 20 34
25 17 4 39 17 50 29 18 20 19 42 22 383 3 409 3 405 -66 420 -27 7 -42 15 -42
25 0 14 21 16 157 15 l158 -1 218 -269z"/>
<path d="M9103 5133 c-11 -32 -30 -82 -42 -110 l-21 -53 89 0 89 0 -42 110
c-22 61 -43 110 -46 110 -3 0 -15 -26 -27 -57z"/>
<path d="M6005 4157 c-18 -14 -20 -29 -23 -198 l-4 -182 63 6 c107 9 152 65
153 191 0 128 -36 185 -121 193 -33 3 -54 0 -68 -10z"/>
<path d="M5980 3568 c0 -227 2 -232 85 -236 68 -3 135 24 167 68 30 41 44 139
29 204 -23 103 -83 145 -208 146 l-73 0 0 -182z"/>
<path d="M2360 1300 l0 -190 7640 0 7640 0 0 190 0 190 -7640 0 -7640 0 0
-190z"/>
</g>
</svg>
